Normalized EMG Linear Envelopes
nRows=32
nColumns=17

endheader
time	        VM	        VL	        RF	       GRA	        TA	   ADDLONG	   SEMIMEM	      BFLH	        GM	        GL	       TFL	   GLUTMAX	   GLUTMED	      PIRI	    OBTINT	        QF	
4.415	  0.054453	  0.048175	  0.191473	  0.078638	  0.516423	  0.143179	  0.127061	  0.035030	  0.017895	  0.013920	  0.063564	  0.125452	  0.000000	  0.000000	  0.000000	  0.000000	
4.4155	  0.055083	  0.048156	  0.188502	  0.078857	  0.512925	  0.142747	  0.129946	  0.036065	  0.017718	  0.013968	  0.062205	  0.126043	  0.000000	  0.000000	  0.000000	  0.000000	
4.416	  0.055719	  0.048143	  0.185567	  0.079095	  0.509458	  0.142340	  0.132867	  0.037124	  0.017540	  0.014019	  0.060868	  0.126650	  0.000000	  0.000000	  0.000000	  0.000000	
4.4165	  0.056359	  0.048139	  0.182668	  0.079352	  0.506020	  0.141958	  0.135824	  0.038206	  0.017362	  0.014073	  0.059554	  0.127273	  0.000000	  0.000000	  0.000000	  0.000000	
4.417	  0.057004	  0.048141	  0.179805	  0.079626	  0.502615	  0.141601	  0.138815	  0.039311	  0.017184	  0.014131	  0.058262	  0.127913	  0.000000	  0.000000	  0.000000	  0.000000	
4.4175	  0.057654	  0.048152	  0.176979	  0.079918	  0.499243	  0.141269	  0.141841	  0.040440	  0.017005	  0.014191	  0.056993	  0.128569	  0.000000	  0.000000	  0.000000	  0.000000	
4.418	  0.058307	  0.048170	  0.174190	  0.080227	  0.495905	  0.140960	  0.144901	  0.041591	  0.016826	  0.014255	  0.055746	  0.129242	  0.000000	  0.000000	  0.000000	  0.000000	
4.4185	  0.058965	  0.048196	  0.171440	  0.080553	  0.492602	  0.140676	  0.147993	  0.042767	  0.016647	  0.014321	  0.054521	  0.129932	  0.000000	  0.000000	  0.000000	  0.000000	
4.419	  0.059625	  0.048230	  0.168728	  0.080895	  0.489334	  0.140415	  0.151118	  0.043965	  0.016467	  0.014391	  0.053318	  0.130638	  0.000000	  0.000000	  0.000000	  0.000000	
4.4195	  0.060289	  0.048271	  0.166055	  0.081253	  0.486102	  0.140178	  0.154274	  0.045187	  0.016287	  0.014464	  0.052138	  0.131361	  0.000000	  0.000000	  0.000000	  0.000000	
4.42	  0.060956	  0.048320	  0.163421	  0.081627	  0.482906	  0.139963	  0.157460	  0.046433	  0.016106	  0.014540	  0.050980	  0.132100	  0.000000	  0.000000	  0.000000	  0.000000	
4.4205	  0.061625	  0.048376	  0.160827	  0.082016	  0.479747	  0.139771	  0.160676	  0.047702	  0.015926	  0.014619	  0.049843	  0.132856	  0.000000	  0.000000	  0.000000	  0.000000	
4.421	  0.062295	  0.048440	  0.158272	  0.082419	  0.476626	  0.139601	  0.163920	  0.048995	  0.015744	  0.014702	  0.048729	  0.133627	  0.000000	  0.000000	  0.000000	  0.000000	
4.4215	  0.062968	  0.048511	  0.155757	  0.082837	  0.473543	  0.139452	  0.167192	  0.050311	  0.015563	  0.014787	  0.047636	  0.134415	  0.000000	  0.000000	  0.000000	  0.000000	
4.422	  0.063641	  0.048590	  0.153283	  0.083269	  0.470497	  0.139325	  0.170491	  0.051650	  0.015381	  0.014875	  0.046565	  0.135219	  0.000000	  0.000000	  0.000000	  0.000000	
4.4225	  0.064315	  0.048675	  0.150849	  0.083714	  0.467490	  0.139218	  0.173815	  0.053014	  0.015198	  0.014965	  0.045516	  0.136039	  0.000000	  0.000000	  0.000000	  0.000000	
4.423	  0.064989	  0.048768	  0.148454	  0.084173	  0.464522	  0.139131	  0.177163	  0.054400	  0.015015	  0.015059	  0.044488	  0.136874	  0.000000	  0.000000	  0.000000	  0.000000	
4.4235	  0.065663	  0.048868	  0.146101	  0.084645	  0.461592	  0.139064	  0.180534	  0.055810	  0.014832	  0.015156	  0.043482	  0.137724	  0.000000	  0.000000	  0.000000	  0.000000	
4.424	  0.066336	  0.048974	  0.143787	  0.085129	  0.458702	  0.139016	  0.183928	  0.057244	  0.014648	  0.015255	  0.042497	  0.138589	  0.000000	  0.000000	  0.000000	  0.000000	
4.4245	  0.067008	  0.049088	  0.141514	  0.085627	  0.455850	  0.138987	  0.187342	  0.058700	  0.014464	  0.015357	  0.041533	  0.139469	  0.000000	  0.000000	  0.000000	  0.000000	
4.425	  0.067678	  0.049208	  0.139281	  0.086136	  0.453038	  0.138977	  0.190775	  0.060180	  0.014279	  0.015461	  0.040590	  0.140364	  0.000000	  0.000000	  0.000000	  0.000000	
4.4255	  0.068345	  0.049335	  0.137089	  0.086658	  0.450265	  0.138986	  0.194226	  0.061683	  0.014094	  0.015569	  0.039668	  0.141273	  0.000000	  0.000000	  0.000000	  0.000000	
4.426	  0.069010	  0.049468	  0.134936	  0.087192	  0.447530	  0.139012	  0.197693	  0.063208	  0.013909	  0.015678	  0.038768	  0.142195	  0.000000	  0.000000	  0.000000	  0.000000	
4.4265	  0.069671	  0.049608	  0.132824	  0.087739	  0.444835	  0.139056	  0.201175	  0.064757	  0.013722	  0.015791	  0.037887	  0.143132	  0.000000	  0.000000	  0.000000	  0.000000	
4.427	  0.070328	  0.049754	  0.130751	  0.088297	  0.442178	  0.139118	  0.204671	  0.066328	  0.013536	  0.015905	  0.037027	  0.144081	  0.000000	  0.000000	  0.000000	  0.000000	
4.4275	  0.070980	  0.049905	  0.128718	  0.088868	  0.439559	  0.139197	  0.208178	  0.067921	  0.013349	  0.016022	  0.036188	  0.145043	  0.000000	  0.000000	  0.000000	  0.000000	
4.428	  0.071628	  0.050063	  0.126724	  0.089451	  0.436979	  0.139293	  0.211696	  0.069537	  0.013161	  0.016142	  0.035369	  0.146018	  0.000000	  0.000000	  0.000000	  0.000000	
4.4285	  0.072269	  0.050226	  0.124770	  0.090046	  0.434437	  0.139405	  0.215222	  0.071175	  0.012973	  0.016263	  0.034569	  0.147005	  0.000000	  0.000000	  0.000000	  0.000000	
4.429	  0.072904	  0.050395	  0.122854	  0.090653	  0.431933	  0.139533	  0.218755	  0.072834	  0.012784	  0.016387	  0.033789	  0.148003	  0.000000	  0.000000	  0.000000	  0.000000	
4.4295	  0.073532	  0.050568	  0.120977	  0.091272	  0.429466	  0.139677	  0.222292	  0.074515	  0.012595	  0.016512	  0.033029	  0.149013	  0.000000	  0.000000	  0.000000	  0.000000	
4.43	  0.074152	  0.050747	  0.119138	  0.091903	  0.427035	  0.139835	  0.225834	  0.076217	  0.012405	  0.016640	  0.032289	  0.150034	  0.000000	  0.000000	  0.000000	  0.000000	
4.4305	  0.074765	  0.050930	  0.117338	  0.092545	  0.424640	  0.140007	  0.229376	  0.077940	  0.012215	  0.016769	  0.031567	  0.151065	  0.000000	  0.000000	  0.000000	  0.000000	
